<?xml version="1.0" standalone="no"?>
<!DOCTYPE svg PUBLIC "-//W3C//DTD SVG 20010904//EN"
 "http://www.w3.org/TR/2001/REC-SVG-20010904/DTD/svg10.dtd">
<svg version="1.0" xmlns="http://www.w3.org/2000/svg"
 width="800.000000pt" height="800.000000pt" viewBox="0 0 800.000000 800.000000"
 preserveAspectRatio="xMidYMid meet">
<metadata>
Created by potrace 1.14, written by Peter Selinger 2001-2017
</metadata>
<g transform="translate(0.000000,800.000000) scale(0.100000,-0.100000)"
fill="#000000" stroke="none">
<path d="M1137 6862 l-707 -707 0 -2860 0 -2860 1330 1330 1330 1330 889 -895
888 -895 -1336 -3 -1336 -2 -430 -430 -430 -430 2810 0 2810 0 -1912 1912
-1913 1913 -920 -920 -920 -920 0 635 0 635 1508 1508 1507 1507 635 0 635 0
-920 -920 -920 -920 1913 -1913 1912 -1912 0 2810 0 2810 -430 -430 -430 -430
-2 -1336 -3 -1336 -895 889 -895 888 1330 1330 1330 1330 -2860 0 -2860 0
-708 -708z m1203 -1197 l-1045 -1045 -3 632 -2 633 412 412 413 413 635 0 635
0 -1045 -1045z"/>
</g>
</svg>
